<?xml version="1.0" encoding="utf-8"?>
<!-- Generator: Adobe Illustrator 19.0.0, SVG Export Plug-In . SVG Version: 6.00 Build 0)  -->
<svg version="1.1" id="Camada_1" xmlns="http://www.w3.org/2000/svg" xmlns:xlink="http://www.w3.org/1999/xlink" x="0px" y="0px"
	 viewBox="-935 517 48 48" style="enable-background:new -935 517 48 48;" xml:space="preserve">
<style type="text/css">
	.st0{fill:#3B5998;}
</style>
<g id="Icons">
	<g id="Icons_4_">
		<g>
			<path class="st0" d="M-911,517c-13.3,0-24,10.7-24,24c0,13.3,10.7,24,24,24c13.2,0,24-10.7,24-24C-887,527.7-897.7,517-911,517z
				 M-903,531.8c0,0-0.7,0-3,0c-2.3,0-2.3,1.8-2.3,1.8l0,4.4l5.4,0.1l-0.8,5.6h-4.6l-0.1,11.8h-5.5l-0.2-11.8l-4.9,0l0.1-5.7h4.8
				v-4.1c0-0.4,0.1-0.9,0.1-1.3c0.1-1,0.4-1.9,0.8-2.8c0.4-0.7,0.9-1.4,1.6-1.9c0.7-0.5,1.5-0.9,2.3-1.1c0.6-0.2,1.2-0.3,1.8-0.3
				c0.8,0,3.8,0.1,4.6,0.1L-903,531.8z"/>
		</g>
	</g>
</g>
</svg>
