<?xml version="1.0" encoding="utf-8"?>
<!-- Generator: Adobe Illustrator 19.0.0, SVG Export Plug-In . SVG Version: 6.00 Build 0)  -->
<svg version="1.1" id="Camada_1" xmlns="http://www.w3.org/2000/svg" xmlns:xlink="http://www.w3.org/1999/xlink" x="0px" y="0px"
	 viewBox="-935 517 48 48" style="enable-background:new -935 517 48 48;" xml:space="preserve">
<style type="text/css">
	.st0{fill:url(#SVGID_1_);}
	.st1{fill:#FFFFFF;}
</style>
<g id="Icons">
	<g id="Icons_8_">
		<g>
			
				<linearGradient id="SVGID_1_" gradientUnits="userSpaceOnUse" x1="-911" y1="1598.033" x2="-911" y2="1543.0326" gradientTransform="matrix(1 0 0 1 0 -1030)">
				<stop  offset="9.694000e-02" style="stop-color:#FFD879"/>
				<stop  offset="0.1539" style="stop-color:#FCCB76"/>
				<stop  offset="0.2583" style="stop-color:#F5AA6C"/>
				<stop  offset="0.3976" style="stop-color:#E9755E"/>
				<stop  offset="0.449" style="stop-color:#E45F58"/>
				<stop  offset="0.6786" style="stop-color:#D22A9C"/>
				<stop  offset="1" style="stop-color:#6968DF"/>
			</linearGradient>
			<circle class="st0" cx="-911" cy="541" r="24"/>
			<g>
				<path class="st1" d="M-911,548c-3.9,0-7-3.2-7-7c0-3.9,3.2-7,7-7c3.9,0,7,3.2,7,7C-904,544.9-907.1,548-911,548z M-911,536.5
					c-2.5,0-4.5,2-4.5,4.5c0,2.5,2,4.5,4.5,4.5c2.5,0,4.5-2,4.5-4.5S-908.5,536.5-911,536.5z"/>
			</g>
			<circle class="st1" cx="-903.3" cy="533.6" r="1.2"/>
			<g>
				<path class="st1" d="M-904.7,555.4h-12.7c-4.4,0-8-3.6-8-8v-12.7c0-4.4,3.6-8,8-8h12.7c4.4,0,8,3.6,8,8v12.7
					C-896.6,551.8-900.2,555.4-904.7,555.4z M-917.1,529.1c-3.2,0-5.8,2.6-5.8,5.8v12.1c0,3.2,2.6,5.8,5.8,5.8h12.1
					c3.2,0,5.8-2.6,5.8-5.8v-12.1c0-3.2-2.6-5.8-5.8-5.8H-917.1z"/>
			</g>
		</g>
	</g>
</g>
</svg>
