<?xml version="1.0" encoding="utf-8"?>
<!-- Generator: Adobe Illustrator 19.0.0, SVG Export Plug-In . SVG Version: 6.00 Build 0)  -->
<svg version="1.1" id="Camada_1" xmlns="http://www.w3.org/2000/svg" xmlns:xlink="http://www.w3.org/1999/xlink" x="0px" y="0px"
	 viewBox="-935 517 48 48" style="enable-background:new -935 517 48 48;" xml:space="preserve">
<style type="text/css">
	.st0{fill:#4AA0EC;}
</style>
<g id="Icons">
	<g id="Icons_13_">
		<g>
			<path class="st0" d="M-911,517c-13.2,0-24,10.7-24,24c0,13.2,10.7,24,24,24c13.2,0,24-10.7,24-24C-887,527.7-897.8,517-911,517z
				 M-899.1,534.9c0,0,0,2.7-0.4,4.4c-0.4,1.7-1.8,6.4-5.8,9.8c-4.1,3.3-9,4.1-11.8,3.9c-2.8-0.2-6.3-1.3-8.5-2.6
				c0,0,5.1,0.6,8.8-2.6c0,0-3.8,0.2-5.6-4.2c0,0,1.3,0.2,2.7-0.2c0,0-4.8-0.9-4.8-6c0,0,1.6,0.8,2.7,0.7c0,0-4.6-3.5-1.8-8
				c0,0,4.6,6.1,12.5,6.3c-1.9-5.3,6.7-10.4,10.3-5.5c0,0,1.4,0,3.9-1.4c0,0-0.6,1.9-2.5,3.2c0,0,1.5,0,3.2-0.8
				C-896.4,532.1-897.5,533.8-899.1,534.9z"/>
		</g>
	</g>
</g>
</svg>
